<svg width="27" height="20" viewBox="0 0 27 20" fill="none" xmlns="http://www.w3.org/2000/svg">
<path d="M4.05 8.32799C5.53922 8.32799 6.75 7.11721 6.75 5.628C6.75 4.13879 5.53922 2.92801 4.05 2.92801C2.56078 2.92801 1.35 4.13879 1.35 5.628C1.35 7.11721 2.56078 8.32799 4.05 8.32799ZM22.95 8.32799C24.4392 8.32799 25.65 7.11721 25.65 5.628C25.65 4.13879 24.4392 2.92801 22.95 2.92801C21.4608 2.92801 20.25 4.13879 20.25 5.628C20.25 7.11721 21.4608 8.32799 22.95 8.32799ZM24.3 9.67798H21.6C20.8575 9.67798 20.1867 9.97751 19.6973 10.4627C21.3975 11.395 22.6041 13.0783 22.8656 15.078H25.65C26.3967 15.078 27 14.4747 27 13.728V12.378C27 10.8888 25.7892 9.67798 24.3 9.67798ZM13.5 9.67798C16.1114 9.67798 18.225 7.5644 18.225 4.953C18.225 2.34161 16.1114 0.228027 13.5 0.228027C10.8886 0.228027 8.775 2.34161 8.775 4.953C8.775 7.5644 10.8886 9.67798 13.5 9.67798ZM16.74 11.028H16.3898C15.5123 11.4498 14.5378 11.703 13.5 11.703C12.4622 11.703 11.4919 11.4498 10.6102 11.028H10.26C7.57688 11.028 5.4 13.2048 5.4 15.8879V17.1029C5.4 18.2209 6.30703 19.1279 7.425 19.1279H19.575C20.693 19.1279 21.6 18.2209 21.6 17.1029V15.8879C21.6 13.2048 19.4231 11.028 16.74 11.028ZM7.30266 10.4627C6.81328 9.97751 6.1425 9.67798 5.4 9.67798H2.7C1.21078 9.67798 0 10.8888 0 12.378V13.728C0 14.4747 0.603281 15.078 1.35 15.078H4.13016C4.39594 13.0783 5.6025 11.395 7.30266 10.4627Z" fill="#DDE2FF"/>
</svg>
