<svg width="23" height="23" viewBox="0 0 23 23" fill="none" xmlns="http://www.w3.org/2000/svg">
<path d="M0 2.55556V20.4444C0 21.1222 0.269245 21.7722 0.748505 22.2515C1.22776 22.7308 1.87778 23 2.55556 23H20.4444C21.1222 23 21.7722 22.7308 22.2515 22.2515C22.7308 21.7722 23 21.1222 23 20.4444V2.55556C23 1.87778 22.7308 1.22776 22.2515 0.748505C21.7722 0.269245 21.1222 0 20.4444 0H2.55556C1.87778 0 1.22776 0.269245 0.748505 0.748505C0.269245 1.22776 0 1.87778 0 2.55556ZM8.94444 5.11111H19.1667V7.66667H8.94444V5.11111ZM8.94444 10.2222H19.1667V12.7778H8.94444V10.2222ZM8.94444 15.3333H19.1667V17.8889H8.94444V15.3333ZM3.83333 5.11111H6.38889V7.66667H3.83333V5.11111ZM3.83333 10.2222H6.38889V12.7778H3.83333V10.2222ZM3.83333 15.3333H6.38889V17.8889H3.83333V15.3333Z" fill="#A4A6B3"/>
</svg>
